<?xml version="1.0" encoding="UTF-8"?>
<svg width="64px" height="64px" viewBox="0 0 64 128" version="1.1" xmlns="http://www.w3.org/2000/svg" xmlns:xlink="http://www.w3.org/1999/xlink">
    <!-- Generator: Sketch 46.2 (44496) - http://www.bohemiancoding.com/sketch -->
    <title>Confluence_1-white</title>
    <desc>Created with Sketch.</desc>
    <defs>
        <linearGradient x1="99.0757283%" y1="112.657931%" x2="33.7814025%" y2="37.7208085%" id="linearGradient-1">
            <stop stop-color="#FFFFFF" stop-opacity="0.4" offset="0%"></stop>
            <stop stop-color="#FFFFFF" offset="100%"></stop>
        </linearGradient>
        <linearGradient x1="14.1838118%" y1="5.80047897%" x2="61.141783%" y2="70.9663868%" id="linearGradient-2">
            <stop stop-color="#FFFFFF" stop-opacity="0.4" offset="0%"></stop>
            <stop stop-color="#FFFFFF" offset="100%"></stop>
        </linearGradient>
    </defs>
    <g id="Page-1" stroke="none" stroke-width="1" fill="none" fill-rule="evenodd">
        <g id="Confluence_1-white" fill-rule="nonzero">
            <g transform="translate(0.000000, 27.410000)" id="Shape">
                <path d="M2.234,50.028 C1.585,51.083 0.85,52.321 0.277,53.3 C-0.272738947,54.2370254 0.026059491,55.4415427 0.95,56.013 L13.95,64.034 C14.4056903,64.3171721 14.9562658,64.4047661 15.4773357,64.276992 C15.9984057,64.1492179 16.446002,63.8168573 16.719,63.355 C17.235,62.482 17.905,61.355 18.637,60.148 C23.788,51.648 28.97,52.684 38.302,57.12 L51.191,63.247 C51.6788761,63.4783939 52.2395865,63.5026842 52.7456456,63.3143481 C53.2517046,63.1260121 53.6601083,62.7410541 53.878,62.247 L60.068,48.27 C60.5078575,47.2768105 60.0745633,46.1141083 59.092,45.651 C56.37,44.371 50.959,41.817 46.116,39.472 C28.513,30.953 13.62,31.516 2.234,50.028 Z" fill="url(#linearGradient-1)"></path>
                <path d="M60.518,17.262 C61.167,16.206 61.902,14.969 62.475,13.994 C63.0274044,13.0560922 62.7283163,11.8486292 61.802,11.277 L48.802,3.256 C48.3463097,2.97282787 47.7957342,2.88523386 47.2746643,3.01300796 C46.7535943,3.14078206 46.305998,3.47314266 46.033,3.935 C45.517,4.808 44.847,5.935 44.115,7.142 C38.964,15.642 33.782,14.606 24.45,10.17 L11.564,4.043 C11.0761239,3.81160607 10.5154135,3.78731577 10.0093544,3.97565186 C9.50329537,4.16398794 9.09489174,4.54894591 8.877,5.043 L2.687,19.016 C2.24714254,20.0091895 2.68043671,21.1718917 3.663,21.635 C6.385,22.915 11.796,25.469 16.639,27.814 C34.24,36.337 49.132,35.774 60.518,17.262 Z" fill="url(#linearGradient-2)"></path>
            </g>
        </g>
    </g>
</svg>
